<mxfile host="app.diagrams.net" modified="2022-01-17T14:04:59.789Z" agent="5.0 (Macintosh; Intel Mac OS X 10_15_7) AppleWebKit/537.36 (KHTML, like Gecko) Chrome/97.0.4692.71 Safari/537.36" etag="qYusQCp_xzIZ4d8uaxGR" version="16.2.7" type="github">
  <diagram id="PSJOeMjNMGUrnxPs66qq" name="Page-1">
    <mxGraphModel dx="1823" dy="636" grid="1" gridSize="10" guides="1" tooltips="1" connect="1" arrows="1" fold="1" page="1" pageScale="1" pageWidth="827" pageHeight="1169" math="0" shadow="0">
      <root>
        <mxCell id="0" />
        <mxCell id="1" parent="0" />
        <mxCell id="qhdwFen5UYOYH1Ov315L-1" value="" style="rounded=0;whiteSpace=wrap;html=1;" vertex="1" parent="1">
          <mxGeometry x="140" y="130" width="130" height="210" as="geometry" />
        </mxCell>
        <mxCell id="qhdwFen5UYOYH1Ov315L-3" value="" style="rounded=0;whiteSpace=wrap;html=1;" vertex="1" parent="1">
          <mxGeometry x="290" y="90" width="340" height="290" as="geometry" />
        </mxCell>
        <mxCell id="qhdwFen5UYOYH1Ov315L-4" value="channel" style="strokeWidth=2;html=1;shape=mxgraph.flowchart.direct_data;whiteSpace=wrap;" vertex="1" parent="1">
          <mxGeometry x="157.5" y="160" width="102.5" height="40" as="geometry" />
        </mxCell>
        <mxCell id="qhdwFen5UYOYH1Ov315L-5" value="channel" style="strokeWidth=2;html=1;shape=mxgraph.flowchart.direct_data;whiteSpace=wrap;" vertex="1" parent="1">
          <mxGeometry x="157.5" y="215" width="102.5" height="40" as="geometry" />
        </mxCell>
        <mxCell id="qhdwFen5UYOYH1Ov315L-6" value="channel" style="strokeWidth=2;html=1;shape=mxgraph.flowchart.direct_data;whiteSpace=wrap;" vertex="1" parent="1">
          <mxGeometry x="157.5" y="270" width="102.5" height="40" as="geometry" />
        </mxCell>
        <mxCell id="qhdwFen5UYOYH1Ov315L-7" value="" style="rounded=0;whiteSpace=wrap;html=1;" vertex="1" parent="1">
          <mxGeometry x="650" y="130" width="130" height="210" as="geometry" />
        </mxCell>
        <mxCell id="qhdwFen5UYOYH1Ov315L-8" value="channel" style="strokeWidth=2;html=1;shape=mxgraph.flowchart.direct_data;whiteSpace=wrap;" vertex="1" parent="1">
          <mxGeometry x="667.5" y="160" width="102.5" height="40" as="geometry" />
        </mxCell>
        <mxCell id="qhdwFen5UYOYH1Ov315L-9" value="channel" style="strokeWidth=2;html=1;shape=mxgraph.flowchart.direct_data;whiteSpace=wrap;" vertex="1" parent="1">
          <mxGeometry x="667.5" y="215" width="102.5" height="40" as="geometry" />
        </mxCell>
        <mxCell id="qhdwFen5UYOYH1Ov315L-10" value="channel" style="strokeWidth=2;html=1;shape=mxgraph.flowchart.direct_data;whiteSpace=wrap;" vertex="1" parent="1">
          <mxGeometry x="667.5" y="270" width="102.5" height="40" as="geometry" />
        </mxCell>
        <mxCell id="qhdwFen5UYOYH1Ov315L-11" value="Producer" style="rounded=1;whiteSpace=wrap;html=1;" vertex="1" parent="1">
          <mxGeometry x="-25" y="205" width="120" height="60" as="geometry" />
        </mxCell>
        <mxCell id="qhdwFen5UYOYH1Ov315L-13" value="Consumer" style="rounded=1;whiteSpace=wrap;html=1;" vertex="1" parent="1">
          <mxGeometry x="820" y="205" width="120" height="60" as="geometry" />
        </mxCell>
        <mxCell id="qhdwFen5UYOYH1Ov315L-14" value="Virtual Host" style="rounded=0;whiteSpace=wrap;html=1;" vertex="1" parent="1">
          <mxGeometry x="310" y="290" width="90" height="70" as="geometry" />
        </mxCell>
        <mxCell id="qhdwFen5UYOYH1Ov315L-15" value="Virtual Host" style="rounded=0;whiteSpace=wrap;html=1;" vertex="1" parent="1">
          <mxGeometry x="414" y="290" width="90" height="70" as="geometry" />
        </mxCell>
        <mxCell id="qhdwFen5UYOYH1Ov315L-16" value="Virtual Host" style="rounded=0;whiteSpace=wrap;html=1;" vertex="1" parent="1">
          <mxGeometry x="520" y="290" width="90" height="70" as="geometry" />
        </mxCell>
        <mxCell id="qhdwFen5UYOYH1Ov315L-17" value="Virtual Host&lt;br&gt;&lt;br&gt;&lt;br&gt;&lt;br&gt;&lt;br&gt;&lt;br&gt;&lt;br&gt;&lt;br&gt;&lt;br&gt;" style="rounded=0;whiteSpace=wrap;html=1;" vertex="1" parent="1">
          <mxGeometry x="310" y="110" width="300" height="160" as="geometry" />
        </mxCell>
      </root>
    </mxGraphModel>
  </diagram>
</mxfile>
